# xmcd
#
# Track frame offsets: 
#        150
#        12608
#        24118
#        34340
#        44063
#        56993
#        71058
#        86960
#        97755
#        108593
#        128035
#        140635
#        153305
#        165830
#        199308
#        219375
#        231370
#        244078
#        266050
#        278953
#        292955
#        307813
#
# Disc length: 4322 seconds
#
# Revision: 10
# Processed by: cddbd v1.5.2PL0 Copyright (c) Steve Scherf et al.
# Submitted via: ExactAudioCopyFreeDBPlugin 1.0
#
DISCID=4510e016
DTITLE=James Brown - Gold
DYEAR=1996
DGENRE=Soul
TTITLE0=Please, please, please
TTITLE1=Try me
TTITLE2=Good good lovin'
TTITLE3=I'll go crazy
TTITLE4=Think
TTITLE5=Lost someone
TTITLE6=Night train
TTITLE7=Prisoner of love
TTITLE8=Out of sight
TTITLE9=Papa's got a brand new bag
TTITLE10=I got you (I feel good)
TTITLE11=It's a Man's, man's, man's world
TTITLE12=Money won't change you
TTITLE13=Cold sweat
TTITLE14=There was a time
TTITLE15=I got the feelin'
TTITLE16=Licking stick - licking stick
TTITLE17=Say it loud - I'm black and I'm proud
TTITLE18=Give it up or turnit a loose
TTITLE19=I don't want nobody to give me nothing (open up the door, I'l
TTITLE19=l get it myself)
TTITLE20=Mother Popcorn
TTITLE21=Hey America
EXTD=Polydor 535 888 - 2 YEAR: 1996
EXTT0=
EXTT1=
EXTT2=
EXTT3=
EXTT4=
EXTT5=
EXTT6=
EXTT7=
EXTT8=
EXTT9=
EXTT10=
EXTT11=
EXTT12=
EXTT13=
EXTT14=
EXTT15=
EXTT16=
EXTT17=
EXTT18=
EXTT19=
EXTT20=
EXTT21=
PLAYORDER=
